<?xml version="1.0" encoding="utf-8" standalone="no"?>
<!DOCTYPE svg PUBLIC "-//W3C//DTD SVG 1.1//EN"
  "http://www.w3.org/Graphics/SVG/1.1/DTD/svg11.dtd">
<svg xmlns:xlink="http://www.w3.org/1999/xlink" width="576pt" height="432pt" viewBox="0 0 576 432" xmlns="http://www.w3.org/2000/svg" version="1.1">
 <metadata>
  <rdf:RDF xmlns:dc="http://purl.org/dc/elements/1.1/" xmlns:cc="http://creativecommons.org/ns#" xmlns:rdf="http://www.w3.org/1999/02/22-rdf-syntax-ns#">
   <cc:Work>
    <dc:type rdf:resource="http://purl.org/dc/dcmitype/StillImage"/>
    <dc:date>2024-12-14T00:40:36.798725</dc:date>
    <dc:format>image/svg+xml</dc:format>
    <dc:creator>
     <cc:Agent>
      <dc:title>Matplotlib v3.9.3, https://matplotlib.org/</dc:title>
     </cc:Agent>
    </dc:creator>
   </cc:Work>
  </rdf:RDF>
 </metadata>
 <defs>
  <style type="text/css">*{stroke-linejoin: round; stroke-linecap: butt}</style>
 </defs>
 <g id="figure_1">
  <g id="patch_1">
   <path d="M 0 432 
L 576 432 
L 576 0 
L 0 0 
z
" style="fill: #ffffff"/>
  </g>
  <g id="axes_1">
   <g id="patch_2">
    <path d="M 56.99 387.16 
L 565.2 387.16 
L 565.2 10.8 
L 56.99 10.8 
z
" style="fill: #ffffff"/>
   </g>
   <g id="matplotlib.axis_1">
    <g id="xtick_1">
     <g id="line2d_1">
      <path d="M 110.2161 387.16 
L 110.2161 10.8 
" clip-path="url(#p8999d0971f)" style="fill: none; stroke: #b0b0b0; stroke-width: 0.8; stroke-linecap: square"/>
     </g>
     <g id="line2d_2">
      <defs>
       <path id="mf8e3b55ff3" d="M 0 0 
L 0 3.5 
" style="stroke: #000000; stroke-width: 0.8"/>
      </defs>
      <g>
       <use xlink:href="#mf8e3b55ff3" x="110.2161" y="387.16" style="stroke: #000000; stroke-width: 0.8"/>
      </g>
     </g>
     <g id="text_1">
      <!-- 2 -->
      <g transform="translate(107.03485 401.758438) scale(0.1 -0.1)">
       <defs>
        <path id="DejaVuSans-32" d="M 1228 531 
L 3431 531 
L 3431 0 
L 469 0 
L 469 531 
Q 828 903 1448 1529 
Q 2069 2156 2228 2338 
Q 2531 2678 2651 2914 
Q 2772 3150 2772 3378 
Q 2772 3750 2511 3984 
Q 2250 4219 1831 4219 
Q 1534 4219 1204 4116 
Q 875 4013 500 3803 
L 500 4441 
Q 881 4594 1212 4672 
Q 1544 4750 1819 4750 
Q 2544 4750 2975 4387 
Q 3406 4025 3406 3419 
Q 3406 3131 3298 2873 
Q 3191 2616 2906 2266 
Q 2828 2175 2409 1742 
Q 1991 1309 1228 531 
z
" transform="scale(0.015625)"/>
       </defs>
       <use xlink:href="#DejaVuSans-32"/>
      </g>
     </g>
    </g>
    <g id="xtick_2">
     <g id="line2d_3">
      <path d="M 170.463777 387.16 
L 170.463777 10.8 
" clip-path="url(#p8999d0971f)" style="fill: none; stroke: #b0b0b0; stroke-width: 0.8; stroke-linecap: square"/>
     </g>
     <g id="line2d_4">
      <g>
       <use xlink:href="#mf8e3b55ff3" x="170.463777" y="387.16" style="stroke: #000000; stroke-width: 0.8"/>
      </g>
     </g>
     <g id="text_2">
      <!-- 4 -->
      <g transform="translate(167.282527 401.758438) scale(0.1 -0.1)">
       <defs>
        <path id="DejaVuSans-34" d="M 2419 4116 
L 825 1625 
L 2419 1625 
L 2419 4116 
z
M 2253 4666 
L 3047 4666 
L 3047 1625 
L 3713 1625 
L 3713 1100 
L 3047 1100 
L 3047 0 
L 2419 0 
L 2419 1100 
L 313 1100 
L 313 1709 
L 2253 4666 
z
" transform="scale(0.015625)"/>
       </defs>
       <use xlink:href="#DejaVuSans-34"/>
      </g>
     </g>
    </g>
    <g id="xtick_3">
     <g id="line2d_5">
      <path d="M 230.711453 387.16 
L 230.711453 10.8 
" clip-path="url(#p8999d0971f)" style="fill: none; stroke: #b0b0b0; stroke-width: 0.8; stroke-linecap: square"/>
     </g>
     <g id="line2d_6">
      <g>
       <use xlink:href="#mf8e3b55ff3" x="230.711453" y="387.16" style="stroke: #000000; stroke-width: 0.8"/>
      </g>
     </g>
     <g id="text_3">
      <!-- 6 -->
      <g transform="translate(227.530203 401.758438) scale(0.1 -0.1)">
       <defs>
        <path id="DejaVuSans-36" d="M 2113 2584 
Q 1688 2584 1439 2293 
Q 1191 2003 1191 1497 
Q 1191 994 1439 701 
Q 1688 409 2113 409 
Q 2538 409 2786 701 
Q 3034 994 3034 1497 
Q 3034 2003 2786 2293 
Q 2538 2584 2113 2584 
z
M 3366 4563 
L 3366 3988 
Q 3128 4100 2886 4159 
Q 2644 4219 2406 4219 
Q 1781 4219 1451 3797 
Q 1122 3375 1075 2522 
Q 1259 2794 1537 2939 
Q 1816 3084 2150 3084 
Q 2853 3084 3261 2657 
Q 3669 2231 3669 1497 
Q 3669 778 3244 343 
Q 2819 -91 2113 -91 
Q 1303 -91 875 529 
Q 447 1150 447 2328 
Q 447 3434 972 4092 
Q 1497 4750 2381 4750 
Q 2619 4750 2861 4703 
Q 3103 4656 3366 4563 
z
" transform="scale(0.015625)"/>
       </defs>
       <use xlink:href="#DejaVuSans-36"/>
      </g>
     </g>
    </g>
    <g id="xtick_4">
     <g id="line2d_7">
      <path d="M 290.95913 387.16 
L 290.95913 10.8 
" clip-path="url(#p8999d0971f)" style="fill: none; stroke: #b0b0b0; stroke-width: 0.8; stroke-linecap: square"/>
     </g>
     <g id="line2d_8">
      <g>
       <use xlink:href="#mf8e3b55ff3" x="290.95913" y="387.16" style="stroke: #000000; stroke-width: 0.8"/>
      </g>
     </g>
     <g id="text_4">
      <!-- 8 -->
      <g transform="translate(287.77788 401.758438) scale(0.1 -0.1)">
       <defs>
        <path id="DejaVuSans-38" d="M 2034 2216 
Q 1584 2216 1326 1975 
Q 1069 1734 1069 1313 
Q 1069 891 1326 650 
Q 1584 409 2034 409 
Q 2484 409 2743 651 
Q 3003 894 3003 1313 
Q 3003 1734 2745 1975 
Q 2488 2216 2034 2216 
z
M 1403 2484 
Q 997 2584 770 2862 
Q 544 3141 544 3541 
Q 544 4100 942 4425 
Q 1341 4750 2034 4750 
Q 2731 4750 3128 4425 
Q 3525 4100 3525 3541 
Q 3525 3141 3298 2862 
Q 3072 2584 2669 2484 
Q 3125 2378 3379 2068 
Q 3634 1759 3634 1313 
Q 3634 634 3220 271 
Q 2806 -91 2034 -91 
Q 1263 -91 848 271 
Q 434 634 434 1313 
Q 434 1759 690 2068 
Q 947 2378 1403 2484 
z
M 1172 3481 
Q 1172 3119 1398 2916 
Q 1625 2713 2034 2713 
Q 2441 2713 2670 2916 
Q 2900 3119 2900 3481 
Q 2900 3844 2670 4047 
Q 2441 4250 2034 4250 
Q 1625 4250 1398 4047 
Q 1172 3844 1172 3481 
z
" transform="scale(0.015625)"/>
       </defs>
       <use xlink:href="#DejaVuSans-38"/>
      </g>
     </g>
    </g>
    <g id="xtick_5">
     <g id="line2d_9">
      <path d="M 351.206807 387.16 
L 351.206807 10.8 
" clip-path="url(#p8999d0971f)" style="fill: none; stroke: #b0b0b0; stroke-width: 0.8; stroke-linecap: square"/>
     </g>
     <g id="line2d_10">
      <g>
       <use xlink:href="#mf8e3b55ff3" x="351.206807" y="387.16" style="stroke: #000000; stroke-width: 0.8"/>
      </g>
     </g>
     <g id="text_5">
      <!-- 10 -->
      <g transform="translate(344.844307 401.758438) scale(0.1 -0.1)">
       <defs>
        <path id="DejaVuSans-31" d="M 794 531 
L 1825 531 
L 1825 4091 
L 703 3866 
L 703 4441 
L 1819 4666 
L 2450 4666 
L 2450 531 
L 3481 531 
L 3481 0 
L 794 0 
L 794 531 
z
" transform="scale(0.015625)"/>
        <path id="DejaVuSans-30" d="M 2034 4250 
Q 1547 4250 1301 3770 
Q 1056 3291 1056 2328 
Q 1056 1369 1301 889 
Q 1547 409 2034 409 
Q 2525 409 2770 889 
Q 3016 1369 3016 2328 
Q 3016 3291 2770 3770 
Q 2525 4250 2034 4250 
z
M 2034 4750 
Q 2819 4750 3233 4129 
Q 3647 3509 3647 2328 
Q 3647 1150 3233 529 
Q 2819 -91 2034 -91 
Q 1250 -91 836 529 
Q 422 1150 422 2328 
Q 422 3509 836 4129 
Q 1250 4750 2034 4750 
z
" transform="scale(0.015625)"/>
       </defs>
       <use xlink:href="#DejaVuSans-31"/>
       <use xlink:href="#DejaVuSans-30" x="63.623047"/>
      </g>
     </g>
    </g>
    <g id="xtick_6">
     <g id="line2d_11">
      <path d="M 411.454483 387.16 
L 411.454483 10.8 
" clip-path="url(#p8999d0971f)" style="fill: none; stroke: #b0b0b0; stroke-width: 0.8; stroke-linecap: square"/>
     </g>
     <g id="line2d_12">
      <g>
       <use xlink:href="#mf8e3b55ff3" x="411.454483" y="387.16" style="stroke: #000000; stroke-width: 0.8"/>
      </g>
     </g>
     <g id="text_6">
      <!-- 12 -->
      <g transform="translate(405.091983 401.758438) scale(0.1 -0.1)">
       <use xlink:href="#DejaVuSans-31"/>
       <use xlink:href="#DejaVuSans-32" x="63.623047"/>
      </g>
     </g>
    </g>
    <g id="xtick_7">
     <g id="line2d_13">
      <path d="M 471.70216 387.16 
L 471.70216 10.8 
" clip-path="url(#p8999d0971f)" style="fill: none; stroke: #b0b0b0; stroke-width: 0.8; stroke-linecap: square"/>
     </g>
     <g id="line2d_14">
      <g>
       <use xlink:href="#mf8e3b55ff3" x="471.70216" y="387.16" style="stroke: #000000; stroke-width: 0.8"/>
      </g>
     </g>
     <g id="text_7">
      <!-- 14 -->
      <g transform="translate(465.33966 401.758438) scale(0.1 -0.1)">
       <use xlink:href="#DejaVuSans-31"/>
       <use xlink:href="#DejaVuSans-34" x="63.623047"/>
      </g>
     </g>
    </g>
    <g id="xtick_8">
     <g id="line2d_15">
      <path d="M 531.949836 387.16 
L 531.949836 10.8 
" clip-path="url(#p8999d0971f)" style="fill: none; stroke: #b0b0b0; stroke-width: 0.8; stroke-linecap: square"/>
     </g>
     <g id="line2d_16">
      <g>
       <use xlink:href="#mf8e3b55ff3" x="531.949836" y="387.16" style="stroke: #000000; stroke-width: 0.8"/>
      </g>
     </g>
     <g id="text_8">
      <!-- 16 -->
      <g transform="translate(525.587336 401.758438) scale(0.1 -0.1)">
       <use xlink:href="#DejaVuSans-31"/>
       <use xlink:href="#DejaVuSans-36" x="63.623047"/>
      </g>
     </g>
    </g>
    <g id="text_9">
     <!-- Crack Depth [mm] -->
     <g transform="translate(255.528437 416.95625) scale(0.12 -0.12)">
      <defs>
       <path id="DejaVuSans-43" d="M 4122 4306 
L 4122 3641 
Q 3803 3938 3442 4084 
Q 3081 4231 2675 4231 
Q 1875 4231 1450 3742 
Q 1025 3253 1025 2328 
Q 1025 1406 1450 917 
Q 1875 428 2675 428 
Q 3081 428 3442 575 
Q 3803 722 4122 1019 
L 4122 359 
Q 3791 134 3420 21 
Q 3050 -91 2638 -91 
Q 1578 -91 968 557 
Q 359 1206 359 2328 
Q 359 3453 968 4101 
Q 1578 4750 2638 4750 
Q 3056 4750 3426 4639 
Q 3797 4528 4122 4306 
z
" transform="scale(0.015625)"/>
       <path id="DejaVuSans-72" d="M 2631 2963 
Q 2534 3019 2420 3045 
Q 2306 3072 2169 3072 
Q 1681 3072 1420 2755 
Q 1159 2438 1159 1844 
L 1159 0 
L 581 0 
L 581 3500 
L 1159 3500 
L 1159 2956 
Q 1341 3275 1631 3429 
Q 1922 3584 2338 3584 
Q 2397 3584 2469 3576 
Q 2541 3569 2628 3553 
L 2631 2963 
z
" transform="scale(0.015625)"/>
       <path id="DejaVuSans-61" d="M 2194 1759 
Q 1497 1759 1228 1600 
Q 959 1441 959 1056 
Q 959 750 1161 570 
Q 1363 391 1709 391 
Q 2188 391 2477 730 
Q 2766 1069 2766 1631 
L 2766 1759 
L 2194 1759 
z
M 3341 1997 
L 3341 0 
L 2766 0 
L 2766 531 
Q 2569 213 2275 61 
Q 1981 -91 1556 -91 
Q 1019 -91 701 211 
Q 384 513 384 1019 
Q 384 1609 779 1909 
Q 1175 2209 1959 2209 
L 2766 2209 
L 2766 2266 
Q 2766 2663 2505 2880 
Q 2244 3097 1772 3097 
Q 1472 3097 1187 3025 
Q 903 2953 641 2809 
L 641 3341 
Q 956 3463 1253 3523 
Q 1550 3584 1831 3584 
Q 2591 3584 2966 3190 
Q 3341 2797 3341 1997 
z
" transform="scale(0.015625)"/>
       <path id="DejaVuSans-63" d="M 3122 3366 
L 3122 2828 
Q 2878 2963 2633 3030 
Q 2388 3097 2138 3097 
Q 1578 3097 1268 2742 
Q 959 2388 959 1747 
Q 959 1106 1268 751 
Q 1578 397 2138 397 
Q 2388 397 2633 464 
Q 2878 531 3122 666 
L 3122 134 
Q 2881 22 2623 -34 
Q 2366 -91 2075 -91 
Q 1284 -91 818 406 
Q 353 903 353 1747 
Q 353 2603 823 3093 
Q 1294 3584 2113 3584 
Q 2378 3584 2631 3529 
Q 2884 3475 3122 3366 
z
" transform="scale(0.015625)"/>
       <path id="DejaVuSans-6b" d="M 581 4863 
L 1159 4863 
L 1159 1991 
L 2875 3500 
L 3609 3500 
L 1753 1863 
L 3688 0 
L 2938 0 
L 1159 1709 
L 1159 0 
L 581 0 
L 581 4863 
z
" transform="scale(0.015625)"/>
       <path id="DejaVuSans-20" transform="scale(0.015625)"/>
       <path id="DejaVuSans-44" d="M 1259 4147 
L 1259 519 
L 2022 519 
Q 2988 519 3436 956 
Q 3884 1394 3884 2338 
Q 3884 3275 3436 3711 
Q 2988 4147 2022 4147 
L 1259 4147 
z
M 628 4666 
L 1925 4666 
Q 3281 4666 3915 4102 
Q 4550 3538 4550 2338 
Q 4550 1131 3912 565 
Q 3275 0 1925 0 
L 628 0 
L 628 4666 
z
" transform="scale(0.015625)"/>
       <path id="DejaVuSans-65" d="M 3597 1894 
L 3597 1613 
L 953 1613 
Q 991 1019 1311 708 
Q 1631 397 2203 397 
Q 2534 397 2845 478 
Q 3156 559 3463 722 
L 3463 178 
Q 3153 47 2828 -22 
Q 2503 -91 2169 -91 
Q 1331 -91 842 396 
Q 353 884 353 1716 
Q 353 2575 817 3079 
Q 1281 3584 2069 3584 
Q 2775 3584 3186 3129 
Q 3597 2675 3597 1894 
z
M 3022 2063 
Q 3016 2534 2758 2815 
Q 2500 3097 2075 3097 
Q 1594 3097 1305 2825 
Q 1016 2553 972 2059 
L 3022 2063 
z
" transform="scale(0.015625)"/>
       <path id="DejaVuSans-70" d="M 1159 525 
L 1159 -1331 
L 581 -1331 
L 581 3500 
L 1159 3500 
L 1159 2969 
Q 1341 3281 1617 3432 
Q 1894 3584 2278 3584 
Q 2916 3584 3314 3078 
Q 3713 2572 3713 1747 
Q 3713 922 3314 415 
Q 2916 -91 2278 -91 
Q 1894 -91 1617 61 
Q 1341 213 1159 525 
z
M 3116 1747 
Q 3116 2381 2855 2742 
Q 2594 3103 2138 3103 
Q 1681 3103 1420 2742 
Q 1159 2381 1159 1747 
Q 1159 1113 1420 752 
Q 1681 391 2138 391 
Q 2594 391 2855 752 
Q 3116 1113 3116 1747 
z
" transform="scale(0.015625)"/>
       <path id="DejaVuSans-74" d="M 1172 4494 
L 1172 3500 
L 2356 3500 
L 2356 3053 
L 1172 3053 
L 1172 1153 
Q 1172 725 1289 603 
Q 1406 481 1766 481 
L 2356 481 
L 2356 0 
L 1766 0 
Q 1100 0 847 248 
Q 594 497 594 1153 
L 594 3053 
L 172 3053 
L 172 3500 
L 594 3500 
L 594 4494 
L 1172 4494 
z
" transform="scale(0.015625)"/>
       <path id="DejaVuSans-68" d="M 3513 2113 
L 3513 0 
L 2938 0 
L 2938 2094 
Q 2938 2591 2744 2837 
Q 2550 3084 2163 3084 
Q 1697 3084 1428 2787 
Q 1159 2491 1159 1978 
L 1159 0 
L 581 0 
L 581 4863 
L 1159 4863 
L 1159 2956 
Q 1366 3272 1645 3428 
Q 1925 3584 2291 3584 
Q 2894 3584 3203 3211 
Q 3513 2838 3513 2113 
z
" transform="scale(0.015625)"/>
       <path id="DejaVuSans-5b" d="M 550 4863 
L 1875 4863 
L 1875 4416 
L 1125 4416 
L 1125 -397 
L 1875 -397 
L 1875 -844 
L 550 -844 
L 550 4863 
z
" transform="scale(0.015625)"/>
       <path id="DejaVuSans-6d" d="M 3328 2828 
Q 3544 3216 3844 3400 
Q 4144 3584 4550 3584 
Q 5097 3584 5394 3201 
Q 5691 2819 5691 2113 
L 5691 0 
L 5113 0 
L 5113 2094 
Q 5113 2597 4934 2840 
Q 4756 3084 4391 3084 
Q 3944 3084 3684 2787 
Q 3425 2491 3425 1978 
L 3425 0 
L 2847 0 
L 2847 2094 
Q 2847 2600 2669 2842 
Q 2491 3084 2119 3084 
Q 1678 3084 1418 2786 
Q 1159 2488 1159 1978 
L 1159 0 
L 581 0 
L 581 3500 
L 1159 3500 
L 1159 2956 
Q 1356 3278 1631 3431 
Q 1906 3584 2284 3584 
Q 2666 3584 2933 3390 
Q 3200 3197 3328 2828 
z
" transform="scale(0.015625)"/>
       <path id="DejaVuSans-5d" d="M 1947 4863 
L 1947 -844 
L 622 -844 
L 622 -397 
L 1369 -397 
L 1369 4416 
L 622 4416 
L 622 4863 
L 1947 4863 
z
" transform="scale(0.015625)"/>
      </defs>
      <use xlink:href="#DejaVuSans-43"/>
      <use xlink:href="#DejaVuSans-72" x="69.824219"/>
      <use xlink:href="#DejaVuSans-61" x="110.9375"/>
      <use xlink:href="#DejaVuSans-63" x="172.216797"/>
      <use xlink:href="#DejaVuSans-6b" x="227.197266"/>
      <use xlink:href="#DejaVuSans-20" x="285.107422"/>
      <use xlink:href="#DejaVuSans-44" x="316.894531"/>
      <use xlink:href="#DejaVuSans-65" x="393.896484"/>
      <use xlink:href="#DejaVuSans-70" x="455.419922"/>
      <use xlink:href="#DejaVuSans-74" x="518.896484"/>
      <use xlink:href="#DejaVuSans-68" x="558.105469"/>
      <use xlink:href="#DejaVuSans-20" x="621.484375"/>
      <use xlink:href="#DejaVuSans-5b" x="653.271484"/>
      <use xlink:href="#DejaVuSans-6d" x="692.285156"/>
      <use xlink:href="#DejaVuSans-6d" x="789.697266"/>
      <use xlink:href="#DejaVuSans-5d" x="887.109375"/>
     </g>
    </g>
   </g>
   <g id="matplotlib.axis_2">
    <g id="ytick_1">
     <g id="line2d_17">
      <path d="M 56.99 377.512912 
L 565.2 377.512912 
" clip-path="url(#p8999d0971f)" style="fill: none; stroke: #b0b0b0; stroke-width: 0.8; stroke-linecap: square"/>
     </g>
     <g id="line2d_18">
      <defs>
       <path id="m44d4748312" d="M 0 0 
L -3.5 0 
" style="stroke: #000000; stroke-width: 0.8"/>
      </defs>
      <g>
       <use xlink:href="#m44d4748312" x="56.99" y="377.512912" style="stroke: #000000; stroke-width: 0.8"/>
      </g>
     </g>
     <g id="text_10">
      <!-- 0.12 -->
      <g transform="translate(27.724375 381.312131) scale(0.1 -0.1)">
       <defs>
        <path id="DejaVuSans-2e" d="M 684 794 
L 1344 794 
L 1344 0 
L 684 0 
L 684 794 
z
" transform="scale(0.015625)"/>
       </defs>
       <use xlink:href="#DejaVuSans-30"/>
       <use xlink:href="#DejaVuSans-2e" x="63.623047"/>
       <use xlink:href="#DejaVuSans-31" x="95.410156"/>
       <use xlink:href="#DejaVuSans-32" x="159.033203"/>
      </g>
     </g>
    </g>
    <g id="ytick_2">
     <g id="line2d_19">
      <path d="M 56.99 313.445462 
L 565.2 313.445462 
" clip-path="url(#p8999d0971f)" style="fill: none; stroke: #b0b0b0; stroke-width: 0.8; stroke-linecap: square"/>
     </g>
     <g id="line2d_20">
      <g>
       <use xlink:href="#m44d4748312" x="56.99" y="313.445462" style="stroke: #000000; stroke-width: 0.8"/>
      </g>
     </g>
     <g id="text_11">
      <!-- 0.14 -->
      <g transform="translate(27.724375 317.24468) scale(0.1 -0.1)">
       <use xlink:href="#DejaVuSans-30"/>
       <use xlink:href="#DejaVuSans-2e" x="63.623047"/>
       <use xlink:href="#DejaVuSans-31" x="95.410156"/>
       <use xlink:href="#DejaVuSans-34" x="159.033203"/>
      </g>
     </g>
    </g>
    <g id="ytick_3">
     <g id="line2d_21">
      <path d="M 56.99 249.378011 
L 565.2 249.378011 
" clip-path="url(#p8999d0971f)" style="fill: none; stroke: #b0b0b0; stroke-width: 0.8; stroke-linecap: square"/>
     </g>
     <g id="line2d_22">
      <g>
       <use xlink:href="#m44d4748312" x="56.99" y="249.378011" style="stroke: #000000; stroke-width: 0.8"/>
      </g>
     </g>
     <g id="text_12">
      <!-- 0.16 -->
      <g transform="translate(27.724375 253.17723) scale(0.1 -0.1)">
       <use xlink:href="#DejaVuSans-30"/>
       <use xlink:href="#DejaVuSans-2e" x="63.623047"/>
       <use xlink:href="#DejaVuSans-31" x="95.410156"/>
       <use xlink:href="#DejaVuSans-36" x="159.033203"/>
      </g>
     </g>
    </g>
    <g id="ytick_4">
     <g id="line2d_23">
      <path d="M 56.99 185.310561 
L 565.2 185.310561 
" clip-path="url(#p8999d0971f)" style="fill: none; stroke: #b0b0b0; stroke-width: 0.8; stroke-linecap: square"/>
     </g>
     <g id="line2d_24">
      <g>
       <use xlink:href="#m44d4748312" x="56.99" y="185.310561" style="stroke: #000000; stroke-width: 0.8"/>
      </g>
     </g>
     <g id="text_13">
      <!-- 0.18 -->
      <g transform="translate(27.724375 189.10978) scale(0.1 -0.1)">
       <use xlink:href="#DejaVuSans-30"/>
       <use xlink:href="#DejaVuSans-2e" x="63.623047"/>
       <use xlink:href="#DejaVuSans-31" x="95.410156"/>
       <use xlink:href="#DejaVuSans-38" x="159.033203"/>
      </g>
     </g>
    </g>
    <g id="ytick_5">
     <g id="line2d_25">
      <path d="M 56.99 121.243111 
L 565.2 121.243111 
" clip-path="url(#p8999d0971f)" style="fill: none; stroke: #b0b0b0; stroke-width: 0.8; stroke-linecap: square"/>
     </g>
     <g id="line2d_26">
      <g>
       <use xlink:href="#m44d4748312" x="56.99" y="121.243111" style="stroke: #000000; stroke-width: 0.8"/>
      </g>
     </g>
     <g id="text_14">
      <!-- 0.20 -->
      <g transform="translate(27.724375 125.04233) scale(0.1 -0.1)">
       <use xlink:href="#DejaVuSans-30"/>
       <use xlink:href="#DejaVuSans-2e" x="63.623047"/>
       <use xlink:href="#DejaVuSans-32" x="95.410156"/>
       <use xlink:href="#DejaVuSans-30" x="159.033203"/>
      </g>
     </g>
    </g>
    <g id="ytick_6">
     <g id="line2d_27">
      <path d="M 56.99 57.175661 
L 565.2 57.175661 
" clip-path="url(#p8999d0971f)" style="fill: none; stroke: #b0b0b0; stroke-width: 0.8; stroke-linecap: square"/>
     </g>
     <g id="line2d_28">
      <g>
       <use xlink:href="#m44d4748312" x="56.99" y="57.175661" style="stroke: #000000; stroke-width: 0.8"/>
      </g>
     </g>
     <g id="text_15">
      <!-- 0.22 -->
      <g transform="translate(27.724375 60.974879) scale(0.1 -0.1)">
       <use xlink:href="#DejaVuSans-30"/>
       <use xlink:href="#DejaVuSans-2e" x="63.623047"/>
       <use xlink:href="#DejaVuSans-32" x="95.410156"/>
       <use xlink:href="#DejaVuSans-32" x="159.033203"/>
      </g>
     </g>
    </g>
    <g id="text_16">
     <!-- SIF [MPa*m^1/2] -->
     <g transform="translate(21.22875 250.32875) rotate(-90) scale(0.12 -0.12)">
      <defs>
       <path id="DejaVuSans-53" d="M 3425 4513 
L 3425 3897 
Q 3066 4069 2747 4153 
Q 2428 4238 2131 4238 
Q 1616 4238 1336 4038 
Q 1056 3838 1056 3469 
Q 1056 3159 1242 3001 
Q 1428 2844 1947 2747 
L 2328 2669 
Q 3034 2534 3370 2195 
Q 3706 1856 3706 1288 
Q 3706 609 3251 259 
Q 2797 -91 1919 -91 
Q 1588 -91 1214 -16 
Q 841 59 441 206 
L 441 856 
Q 825 641 1194 531 
Q 1563 422 1919 422 
Q 2459 422 2753 634 
Q 3047 847 3047 1241 
Q 3047 1584 2836 1778 
Q 2625 1972 2144 2069 
L 1759 2144 
Q 1053 2284 737 2584 
Q 422 2884 422 3419 
Q 422 4038 858 4394 
Q 1294 4750 2059 4750 
Q 2388 4750 2728 4690 
Q 3069 4631 3425 4513 
z
" transform="scale(0.015625)"/>
       <path id="DejaVuSans-49" d="M 628 4666 
L 1259 4666 
L 1259 0 
L 628 0 
L 628 4666 
z
" transform="scale(0.015625)"/>
       <path id="DejaVuSans-46" d="M 628 4666 
L 3309 4666 
L 3309 4134 
L 1259 4134 
L 1259 2759 
L 3109 2759 
L 3109 2228 
L 1259 2228 
L 1259 0 
L 628 0 
L 628 4666 
z
" transform="scale(0.015625)"/>
       <path id="DejaVuSans-4d" d="M 628 4666 
L 1569 4666 
L 2759 1491 
L 3956 4666 
L 4897 4666 
L 4897 0 
L 4281 0 
L 4281 4097 
L 3078 897 
L 2444 897 
L 1241 4097 
L 1241 0 
L 628 0 
L 628 4666 
z
" transform="scale(0.015625)"/>
       <path id="DejaVuSans-50" d="M 1259 4147 
L 1259 2394 
L 2053 2394 
Q 2494 2394 2734 2622 
Q 2975 2850 2975 3272 
Q 2975 3691 2734 3919 
Q 2494 4147 2053 4147 
L 1259 4147 
z
M 628 4666 
L 2053 4666 
Q 2838 4666 3239 4311 
Q 3641 3956 3641 3272 
Q 3641 2581 3239 2228 
Q 2838 1875 2053 1875 
L 1259 1875 
L 1259 0 
L 628 0 
L 628 4666 
z
" transform="scale(0.015625)"/>
       <path id="DejaVuSans-2a" d="M 3009 3897 
L 1888 3291 
L 3009 2681 
L 2828 2375 
L 1778 3009 
L 1778 1831 
L 1422 1831 
L 1422 3009 
L 372 2375 
L 191 2681 
L 1313 3291 
L 191 3897 
L 372 4206 
L 1422 3572 
L 1422 4750 
L 1778 4750 
L 1778 3572 
L 2828 4206 
L 3009 3897 
z
" transform="scale(0.015625)"/>
       <path id="DejaVuSans-5e" d="M 2988 4666 
L 4684 2925 
L 4056 2925 
L 2681 4159 
L 1306 2925 
L 678 2925 
L 2375 4666 
L 2988 4666 
z
" transform="scale(0.015625)"/>
       <path id="DejaVuSans-2f" d="M 1625 4666 
L 2156 4666 
L 531 -594 
L 0 -594 
L 1625 4666 
z
" transform="scale(0.015625)"/>
      </defs>
      <use xlink:href="#DejaVuSans-53"/>
      <use xlink:href="#DejaVuSans-49" x="63.476562"/>
      <use xlink:href="#DejaVuSans-46" x="92.96875"/>
      <use xlink:href="#DejaVuSans-20" x="150.488281"/>
      <use xlink:href="#DejaVuSans-5b" x="182.275391"/>
      <use xlink:href="#DejaVuSans-4d" x="221.289062"/>
      <use xlink:href="#DejaVuSans-50" x="307.568359"/>
      <use xlink:href="#DejaVuSans-61" x="363.371094"/>
      <use xlink:href="#DejaVuSans-2a" x="424.650391"/>
      <use xlink:href="#DejaVuSans-6d" x="474.650391"/>
      <use xlink:href="#DejaVuSans-5e" x="572.0625"/>
      <use xlink:href="#DejaVuSans-31" x="655.851562"/>
      <use xlink:href="#DejaVuSans-2f" x="719.474609"/>
      <use xlink:href="#DejaVuSans-32" x="753.166016"/>
      <use xlink:href="#DejaVuSans-5d" x="816.789062"/>
     </g>
    </g>
   </g>
   <g id="line2d_29">
    <path d="M 80.090455 332.946506 
L 86.861992 301.995041 
L 93.71396 284.082447 
L 100.684014 271.275552 
L 107.813423 261.741443 
L 115.088029 254.631938 
L 122.543377 248.242064 
L 122.543377 247.921857 
L 130.203267 243.630808 
L 138.036067 239.388384 
L 146.213183 234.287446 
L 154.659305 230.692325 
L 154.659305 230.765261 
L 163.418715 227.171356 
L 172.458577 223.532981 
L 181.942465 219.558392 
L 191.756511 215.885474 
L 201.993796 212.775781 
L 212.61034 209.301004 
L 223.702841 205.277285 
L 235.293259 201.714783 
L 246.839606 198.506019 
L 257.947229 194.13616 
L 268.892997 191.924487 
L 279.612926 187.408858 
L 290.154131 183.275128 
L 300.715066 181.218849 
L 311.140053 175.639068 
L 321.493948 172.04567 
L 331.750271 167.007335 
L 341.935834 161.453385 
L 351.982526 156.510272 
L 361.975085 151.859408 
L 371.831996 145.188023 
L 381.687733 141.820016 
L 391.347936 132.239815 
L 401.047119 124.807874 
L 410.702984 119.880968 
L 420.128944 112.024278 
L 429.454621 107.782259 
L 438.513221 98.128514 
L 447.562813 89.917478 
L 456.53562 79.45354 
L 465.523128 66.433207 
L 474.42918 64.484812 
L 483.098309 54.496881 
L 491.628296 34.495693 
" clip-path="url(#p8999d0971f)" style="fill: none; stroke: #1f77b4; stroke-width: 1.5; stroke-linecap: square"/>
    <defs>
     <path id="m6eedf28f29" d="M 0 3 
C 0.795609 3 1.55874 2.683901 2.12132 2.12132 
C 2.683901 1.55874 3 0.795609 3 0 
C 3 -0.795609 2.683901 -1.55874 2.12132 -2.12132 
C 1.55874 -2.683901 0.795609 -3 0 -3 
C -0.795609 -3 -1.55874 -2.683901 -2.12132 -2.12132 
C -2.683901 -1.55874 -3 -0.795609 -3 0 
C -3 0.795609 -2.683901 1.55874 -2.12132 2.12132 
C -1.55874 2.683901 -0.795609 3 0 3 
z
" style="stroke: #1f77b4"/>
    </defs>
    <g clip-path="url(#p8999d0971f)">
     <use xlink:href="#m6eedf28f29" x="80.090455" y="332.946506" style="fill: #1f77b4; stroke: #1f77b4"/>
     <use xlink:href="#m6eedf28f29" x="86.861992" y="301.995041" style="fill: #1f77b4; stroke: #1f77b4"/>
     <use xlink:href="#m6eedf28f29" x="93.71396" y="284.082447" style="fill: #1f77b4; stroke: #1f77b4"/>
     <use xlink:href="#m6eedf28f29" x="100.684014" y="271.275552" style="fill: #1f77b4; stroke: #1f77b4"/>
     <use xlink:href="#m6eedf28f29" x="107.813423" y="261.741443" style="fill: #1f77b4; stroke: #1f77b4"/>
     <use xlink:href="#m6eedf28f29" x="115.088029" y="254.631938" style="fill: #1f77b4; stroke: #1f77b4"/>
     <use xlink:href="#m6eedf28f29" x="122.543377" y="248.242064" style="fill: #1f77b4; stroke: #1f77b4"/>
     <use xlink:href="#m6eedf28f29" x="122.543377" y="247.921857" style="fill: #1f77b4; stroke: #1f77b4"/>
     <use xlink:href="#m6eedf28f29" x="130.203267" y="243.630808" style="fill: #1f77b4; stroke: #1f77b4"/>
     <use xlink:href="#m6eedf28f29" x="138.036067" y="239.388384" style="fill: #1f77b4; stroke: #1f77b4"/>
     <use xlink:href="#m6eedf28f29" x="146.213183" y="234.287446" style="fill: #1f77b4; stroke: #1f77b4"/>
     <use xlink:href="#m6eedf28f29" x="154.659305" y="230.692325" style="fill: #1f77b4; stroke: #1f77b4"/>
     <use xlink:href="#m6eedf28f29" x="154.659305" y="230.765261" style="fill: #1f77b4; stroke: #1f77b4"/>
     <use xlink:href="#m6eedf28f29" x="163.418715" y="227.171356" style="fill: #1f77b4; stroke: #1f77b4"/>
     <use xlink:href="#m6eedf28f29" x="172.458577" y="223.532981" style="fill: #1f77b4; stroke: #1f77b4"/>
     <use xlink:href="#m6eedf28f29" x="181.942465" y="219.558392" style="fill: #1f77b4; stroke: #1f77b4"/>
     <use xlink:href="#m6eedf28f29" x="191.756511" y="215.885474" style="fill: #1f77b4; stroke: #1f77b4"/>
     <use xlink:href="#m6eedf28f29" x="201.993796" y="212.775781" style="fill: #1f77b4; stroke: #1f77b4"/>
     <use xlink:href="#m6eedf28f29" x="212.61034" y="209.301004" style="fill: #1f77b4; stroke: #1f77b4"/>
     <use xlink:href="#m6eedf28f29" x="223.702841" y="205.277285" style="fill: #1f77b4; stroke: #1f77b4"/>
     <use xlink:href="#m6eedf28f29" x="235.293259" y="201.714783" style="fill: #1f77b4; stroke: #1f77b4"/>
     <use xlink:href="#m6eedf28f29" x="246.839606" y="198.506019" style="fill: #1f77b4; stroke: #1f77b4"/>
     <use xlink:href="#m6eedf28f29" x="257.947229" y="194.13616" style="fill: #1f77b4; stroke: #1f77b4"/>
     <use xlink:href="#m6eedf28f29" x="268.892997" y="191.924487" style="fill: #1f77b4; stroke: #1f77b4"/>
     <use xlink:href="#m6eedf28f29" x="279.612926" y="187.408858" style="fill: #1f77b4; stroke: #1f77b4"/>
     <use xlink:href="#m6eedf28f29" x="290.154131" y="183.275128" style="fill: #1f77b4; stroke: #1f77b4"/>
     <use xlink:href="#m6eedf28f29" x="300.715066" y="181.218849" style="fill: #1f77b4; stroke: #1f77b4"/>
     <use xlink:href="#m6eedf28f29" x="311.140053" y="175.639068" style="fill: #1f77b4; stroke: #1f77b4"/>
     <use xlink:href="#m6eedf28f29" x="321.493948" y="172.04567" style="fill: #1f77b4; stroke: #1f77b4"/>
     <use xlink:href="#m6eedf28f29" x="331.750271" y="167.007335" style="fill: #1f77b4; stroke: #1f77b4"/>
     <use xlink:href="#m6eedf28f29" x="341.935834" y="161.453385" style="fill: #1f77b4; stroke: #1f77b4"/>
     <use xlink:href="#m6eedf28f29" x="351.982526" y="156.510272" style="fill: #1f77b4; stroke: #1f77b4"/>
     <use xlink:href="#m6eedf28f29" x="361.975085" y="151.859408" style="fill: #1f77b4; stroke: #1f77b4"/>
     <use xlink:href="#m6eedf28f29" x="371.831996" y="145.188023" style="fill: #1f77b4; stroke: #1f77b4"/>
     <use xlink:href="#m6eedf28f29" x="381.687733" y="141.820016" style="fill: #1f77b4; stroke: #1f77b4"/>
     <use xlink:href="#m6eedf28f29" x="391.347936" y="132.239815" style="fill: #1f77b4; stroke: #1f77b4"/>
     <use xlink:href="#m6eedf28f29" x="401.047119" y="124.807874" style="fill: #1f77b4; stroke: #1f77b4"/>
     <use xlink:href="#m6eedf28f29" x="410.702984" y="119.880968" style="fill: #1f77b4; stroke: #1f77b4"/>
     <use xlink:href="#m6eedf28f29" x="420.128944" y="112.024278" style="fill: #1f77b4; stroke: #1f77b4"/>
     <use xlink:href="#m6eedf28f29" x="429.454621" y="107.782259" style="fill: #1f77b4; stroke: #1f77b4"/>
     <use xlink:href="#m6eedf28f29" x="438.513221" y="98.128514" style="fill: #1f77b4; stroke: #1f77b4"/>
     <use xlink:href="#m6eedf28f29" x="447.562813" y="89.917478" style="fill: #1f77b4; stroke: #1f77b4"/>
     <use xlink:href="#m6eedf28f29" x="456.53562" y="79.45354" style="fill: #1f77b4; stroke: #1f77b4"/>
     <use xlink:href="#m6eedf28f29" x="465.523128" y="66.433207" style="fill: #1f77b4; stroke: #1f77b4"/>
     <use xlink:href="#m6eedf28f29" x="474.42918" y="64.484812" style="fill: #1f77b4; stroke: #1f77b4"/>
     <use xlink:href="#m6eedf28f29" x="483.098309" y="54.496881" style="fill: #1f77b4; stroke: #1f77b4"/>
     <use xlink:href="#m6eedf28f29" x="491.628296" y="34.495693" style="fill: #1f77b4; stroke: #1f77b4"/>
    </g>
   </g>
   <g id="line2d_30">
    <path d="M 80.090455 370.052727 
L 86.869523 341.482916 
L 93.73565 325.707945 
L 100.705101 313.452626 
L 107.82969 303.919631 
L 115.1296 296.754614 
L 122.567778 291.131983 
L 130.262611 285.822469 
L 138.179457 281.379472 
L 146.295421 278.414738 
L 154.737326 273.945099 
L 163.505773 269.202761 
L 172.552865 265.665989 
L 181.969276 261.729895 
L 191.760126 257.667378 
L 201.918486 253.899745 
L 212.496171 250.13829 
L 223.557644 246.012664 
L 235.053805 242.422305 
L 246.998178 238.297388 
L 258.722827 234.030449 
L 270.197299 229.834217 
L 281.631916 225.962346 
L 292.840725 220.620518 
L 303.745223 215.713366 
L 314.947767 211.64153 
L 326.034002 206.616465 
L 336.587497 202.021721 
L 347.635897 197.194697 
L 358.609318 190.320713 
L 369.584246 182.837312 
L 380.627313 177.47654 
L 391.566906 167.594366 
L 402.608106 158.979448 
L 413.7404 152.826008 
L 424.719636 145.654204 
L 435.572502 136.894732 
L 446.454678 124.743954 
L 457.447077 111.743476 
L 468.545935 97.226847 
L 479.718475 79.869476 
L 491.255664 84.448316 
L 501.811749 73.016664 
L 512.372992 65.053913 
L 522.516267 58.573377 
L 532.334324 45.710463 
L 542.099545 27.907273 
" clip-path="url(#p8999d0971f)" style="fill: none; stroke: #ff7f0e; stroke-width: 1.5; stroke-linecap: square"/>
    <defs>
     <path id="m49ad990c74" d="M 0 3 
C 0.795609 3 1.55874 2.683901 2.12132 2.12132 
C 2.683901 1.55874 3 0.795609 3 0 
C 3 -0.795609 2.683901 -1.55874 2.12132 -2.12132 
C 1.55874 -2.683901 0.795609 -3 0 -3 
C -0.795609 -3 -1.55874 -2.683901 -2.12132 -2.12132 
C -2.683901 -1.55874 -3 -0.795609 -3 0 
C -3 0.795609 -2.683901 1.55874 -2.12132 2.12132 
C -1.55874 2.683901 -0.795609 3 0 3 
z
" style="stroke: #ff7f0e"/>
    </defs>
    <g clip-path="url(#p8999d0971f)">
     <use xlink:href="#m49ad990c74" x="80.090455" y="370.052727" style="fill: #ff7f0e; stroke: #ff7f0e"/>
     <use xlink:href="#m49ad990c74" x="86.869523" y="341.482916" style="fill: #ff7f0e; stroke: #ff7f0e"/>
     <use xlink:href="#m49ad990c74" x="93.73565" y="325.707945" style="fill: #ff7f0e; stroke: #ff7f0e"/>
     <use xlink:href="#m49ad990c74" x="100.705101" y="313.452626" style="fill: #ff7f0e; stroke: #ff7f0e"/>
     <use xlink:href="#m49ad990c74" x="107.82969" y="303.919631" style="fill: #ff7f0e; stroke: #ff7f0e"/>
     <use xlink:href="#m49ad990c74" x="115.1296" y="296.754614" style="fill: #ff7f0e; stroke: #ff7f0e"/>
     <use xlink:href="#m49ad990c74" x="122.567778" y="291.131983" style="fill: #ff7f0e; stroke: #ff7f0e"/>
     <use xlink:href="#m49ad990c74" x="130.262611" y="285.822469" style="fill: #ff7f0e; stroke: #ff7f0e"/>
     <use xlink:href="#m49ad990c74" x="138.179457" y="281.379472" style="fill: #ff7f0e; stroke: #ff7f0e"/>
     <use xlink:href="#m49ad990c74" x="146.295421" y="278.414738" style="fill: #ff7f0e; stroke: #ff7f0e"/>
     <use xlink:href="#m49ad990c74" x="154.737326" y="273.945099" style="fill: #ff7f0e; stroke: #ff7f0e"/>
     <use xlink:href="#m49ad990c74" x="163.505773" y="269.202761" style="fill: #ff7f0e; stroke: #ff7f0e"/>
     <use xlink:href="#m49ad990c74" x="172.552865" y="265.665989" style="fill: #ff7f0e; stroke: #ff7f0e"/>
     <use xlink:href="#m49ad990c74" x="181.969276" y="261.729895" style="fill: #ff7f0e; stroke: #ff7f0e"/>
     <use xlink:href="#m49ad990c74" x="191.760126" y="257.667378" style="fill: #ff7f0e; stroke: #ff7f0e"/>
     <use xlink:href="#m49ad990c74" x="201.918486" y="253.899745" style="fill: #ff7f0e; stroke: #ff7f0e"/>
     <use xlink:href="#m49ad990c74" x="212.496171" y="250.13829" style="fill: #ff7f0e; stroke: #ff7f0e"/>
     <use xlink:href="#m49ad990c74" x="223.557644" y="246.012664" style="fill: #ff7f0e; stroke: #ff7f0e"/>
     <use xlink:href="#m49ad990c74" x="235.053805" y="242.422305" style="fill: #ff7f0e; stroke: #ff7f0e"/>
     <use xlink:href="#m49ad990c74" x="246.998178" y="238.297388" style="fill: #ff7f0e; stroke: #ff7f0e"/>
     <use xlink:href="#m49ad990c74" x="258.722827" y="234.030449" style="fill: #ff7f0e; stroke: #ff7f0e"/>
     <use xlink:href="#m49ad990c74" x="270.197299" y="229.834217" style="fill: #ff7f0e; stroke: #ff7f0e"/>
     <use xlink:href="#m49ad990c74" x="281.631916" y="225.962346" style="fill: #ff7f0e; stroke: #ff7f0e"/>
     <use xlink:href="#m49ad990c74" x="292.840725" y="220.620518" style="fill: #ff7f0e; stroke: #ff7f0e"/>
     <use xlink:href="#m49ad990c74" x="303.745223" y="215.713366" style="fill: #ff7f0e; stroke: #ff7f0e"/>
     <use xlink:href="#m49ad990c74" x="314.947767" y="211.64153" style="fill: #ff7f0e; stroke: #ff7f0e"/>
     <use xlink:href="#m49ad990c74" x="326.034002" y="206.616465" style="fill: #ff7f0e; stroke: #ff7f0e"/>
     <use xlink:href="#m49ad990c74" x="336.587497" y="202.021721" style="fill: #ff7f0e; stroke: #ff7f0e"/>
     <use xlink:href="#m49ad990c74" x="347.635897" y="197.194697" style="fill: #ff7f0e; stroke: #ff7f0e"/>
     <use xlink:href="#m49ad990c74" x="358.609318" y="190.320713" style="fill: #ff7f0e; stroke: #ff7f0e"/>
     <use xlink:href="#m49ad990c74" x="369.584246" y="182.837312" style="fill: #ff7f0e; stroke: #ff7f0e"/>
     <use xlink:href="#m49ad990c74" x="380.627313" y="177.47654" style="fill: #ff7f0e; stroke: #ff7f0e"/>
     <use xlink:href="#m49ad990c74" x="391.566906" y="167.594366" style="fill: #ff7f0e; stroke: #ff7f0e"/>
     <use xlink:href="#m49ad990c74" x="402.608106" y="158.979448" style="fill: #ff7f0e; stroke: #ff7f0e"/>
     <use xlink:href="#m49ad990c74" x="413.7404" y="152.826008" style="fill: #ff7f0e; stroke: #ff7f0e"/>
     <use xlink:href="#m49ad990c74" x="424.719636" y="145.654204" style="fill: #ff7f0e; stroke: #ff7f0e"/>
     <use xlink:href="#m49ad990c74" x="435.572502" y="136.894732" style="fill: #ff7f0e; stroke: #ff7f0e"/>
     <use xlink:href="#m49ad990c74" x="446.454678" y="124.743954" style="fill: #ff7f0e; stroke: #ff7f0e"/>
     <use xlink:href="#m49ad990c74" x="457.447077" y="111.743476" style="fill: #ff7f0e; stroke: #ff7f0e"/>
     <use xlink:href="#m49ad990c74" x="468.545935" y="97.226847" style="fill: #ff7f0e; stroke: #ff7f0e"/>
     <use xlink:href="#m49ad990c74" x="479.718475" y="79.869476" style="fill: #ff7f0e; stroke: #ff7f0e"/>
     <use xlink:href="#m49ad990c74" x="491.255664" y="84.448316" style="fill: #ff7f0e; stroke: #ff7f0e"/>
     <use xlink:href="#m49ad990c74" x="501.811749" y="73.016664" style="fill: #ff7f0e; stroke: #ff7f0e"/>
     <use xlink:href="#m49ad990c74" x="512.372992" y="65.053913" style="fill: #ff7f0e; stroke: #ff7f0e"/>
     <use xlink:href="#m49ad990c74" x="522.516267" y="58.573377" style="fill: #ff7f0e; stroke: #ff7f0e"/>
     <use xlink:href="#m49ad990c74" x="532.334324" y="45.710463" style="fill: #ff7f0e; stroke: #ff7f0e"/>
     <use xlink:href="#m49ad990c74" x="542.099545" y="27.907273" style="fill: #ff7f0e; stroke: #ff7f0e"/>
    </g>
   </g>
   <g id="patch_3">
    <path d="M 56.99 387.16 
L 56.99 10.8 
" style="fill: none; stroke: #000000; stroke-width: 0.8; stroke-linejoin: miter; stroke-linecap: square"/>
   </g>
   <g id="patch_4">
    <path d="M 565.2 387.16 
L 565.2 10.8 
" style="fill: none; stroke: #000000; stroke-width: 0.8; stroke-linejoin: miter; stroke-linecap: square"/>
   </g>
   <g id="patch_5">
    <path d="M 56.99 387.16 
L 565.2 387.16 
" style="fill: none; stroke: #000000; stroke-width: 0.8; stroke-linejoin: miter; stroke-linecap: square"/>
   </g>
   <g id="patch_6">
    <path d="M 56.99 10.8 
L 565.2 10.8 
" style="fill: none; stroke: #000000; stroke-width: 0.8; stroke-linejoin: miter; stroke-linecap: square"/>
   </g>
   <g id="legend_1">
    <g id="patch_7">
     <path d="M 63.99 62.834375 
L 125.191563 62.834375 
Q 127.191563 62.834375 127.191563 60.834375 
L 127.191563 17.8 
Q 127.191563 15.8 125.191563 15.8 
L 63.99 15.8 
Q 61.99 15.8 61.99 17.8 
L 61.99 60.834375 
Q 61.99 62.834375 63.99 62.834375 
z
" style="fill: #ffffff; opacity: 0.8; stroke: #cccccc; stroke-linejoin: miter"/>
    </g>
    <g id="text_17">
     <!-- Legend -->
     <g transform="translate(76.222031 27.398438) scale(0.1 -0.1)">
      <defs>
       <path id="DejaVuSans-4c" d="M 628 4666 
L 1259 4666 
L 1259 531 
L 3531 531 
L 3531 0 
L 628 0 
L 628 4666 
z
" transform="scale(0.015625)"/>
       <path id="DejaVuSans-67" d="M 2906 1791 
Q 2906 2416 2648 2759 
Q 2391 3103 1925 3103 
Q 1463 3103 1205 2759 
Q 947 2416 947 1791 
Q 947 1169 1205 825 
Q 1463 481 1925 481 
Q 2391 481 2648 825 
Q 2906 1169 2906 1791 
z
M 3481 434 
Q 3481 -459 3084 -895 
Q 2688 -1331 1869 -1331 
Q 1566 -1331 1297 -1286 
Q 1028 -1241 775 -1147 
L 775 -588 
Q 1028 -725 1275 -790 
Q 1522 -856 1778 -856 
Q 2344 -856 2625 -561 
Q 2906 -266 2906 331 
L 2906 616 
Q 2728 306 2450 153 
Q 2172 0 1784 0 
Q 1141 0 747 490 
Q 353 981 353 1791 
Q 353 2603 747 3093 
Q 1141 3584 1784 3584 
Q 2172 3584 2450 3431 
Q 2728 3278 2906 2969 
L 2906 3500 
L 3481 3500 
L 3481 434 
z
" transform="scale(0.015625)"/>
       <path id="DejaVuSans-6e" d="M 3513 2113 
L 3513 0 
L 2938 0 
L 2938 2094 
Q 2938 2591 2744 2837 
Q 2550 3084 2163 3084 
Q 1697 3084 1428 2787 
Q 1159 2491 1159 1978 
L 1159 0 
L 581 0 
L 581 3500 
L 1159 3500 
L 1159 2956 
Q 1366 3272 1645 3428 
Q 1925 3584 2291 3584 
Q 2894 3584 3203 3211 
Q 3513 2838 3513 2113 
z
" transform="scale(0.015625)"/>
       <path id="DejaVuSans-64" d="M 2906 2969 
L 2906 4863 
L 3481 4863 
L 3481 0 
L 2906 0 
L 2906 525 
Q 2725 213 2448 61 
Q 2172 -91 1784 -91 
Q 1150 -91 751 415 
Q 353 922 353 1747 
Q 353 2572 751 3078 
Q 1150 3584 1784 3584 
Q 2172 3584 2448 3432 
Q 2725 3281 2906 2969 
z
M 947 1747 
Q 947 1113 1208 752 
Q 1469 391 1925 391 
Q 2381 391 2643 752 
Q 2906 1113 2906 1747 
Q 2906 2381 2643 2742 
Q 2381 3103 1925 3103 
Q 1469 3103 1208 2742 
Q 947 2381 947 1747 
z
" transform="scale(0.015625)"/>
      </defs>
      <use xlink:href="#DejaVuSans-4c"/>
      <use xlink:href="#DejaVuSans-65" x="53.962891"/>
      <use xlink:href="#DejaVuSans-67" x="115.486328"/>
      <use xlink:href="#DejaVuSans-65" x="178.962891"/>
      <use xlink:href="#DejaVuSans-6e" x="240.486328"/>
      <use xlink:href="#DejaVuSans-64" x="303.865234"/>
     </g>
    </g>
    <g id="line2d_31">
     <path d="M 65.99 38.576563 
L 75.99 38.576563 
L 85.99 38.576563 
" style="fill: none; stroke: #1f77b4; stroke-width: 1.5; stroke-linecap: square"/>
     <g>
      <use xlink:href="#m6eedf28f29" x="75.99" y="38.576563" style="fill: #1f77b4; stroke: #1f77b4"/>
     </g>
    </g>
    <g id="text_18">
     <!-- typeA -->
     <g transform="translate(93.99 42.076563) scale(0.1 -0.1)">
      <defs>
       <path id="DejaVuSans-79" d="M 2059 -325 
Q 1816 -950 1584 -1140 
Q 1353 -1331 966 -1331 
L 506 -1331 
L 506 -850 
L 844 -850 
Q 1081 -850 1212 -737 
Q 1344 -625 1503 -206 
L 1606 56 
L 191 3500 
L 800 3500 
L 1894 763 
L 2988 3500 
L 3597 3500 
L 2059 -325 
z
" transform="scale(0.015625)"/>
       <path id="DejaVuSans-41" d="M 2188 4044 
L 1331 1722 
L 3047 1722 
L 2188 4044 
z
M 1831 4666 
L 2547 4666 
L 4325 0 
L 3669 0 
L 3244 1197 
L 1141 1197 
L 716 0 
L 50 0 
L 1831 4666 
z
" transform="scale(0.015625)"/>
      </defs>
      <use xlink:href="#DejaVuSans-74"/>
      <use xlink:href="#DejaVuSans-79" x="39.208984"/>
      <use xlink:href="#DejaVuSans-70" x="98.388672"/>
      <use xlink:href="#DejaVuSans-65" x="161.865234"/>
      <use xlink:href="#DejaVuSans-41" x="223.388672"/>
     </g>
    </g>
    <g id="line2d_32">
     <path d="M 65.99 53.254688 
L 75.99 53.254688 
L 85.99 53.254688 
" style="fill: none; stroke: #ff7f0e; stroke-width: 1.5; stroke-linecap: square"/>
     <g>
      <use xlink:href="#m49ad990c74" x="75.99" y="53.254688" style="fill: #ff7f0e; stroke: #ff7f0e"/>
     </g>
    </g>
    <g id="text_19">
     <!-- typeB -->
     <g transform="translate(93.99 56.754688) scale(0.1 -0.1)">
      <defs>
       <path id="DejaVuSans-42" d="M 1259 2228 
L 1259 519 
L 2272 519 
Q 2781 519 3026 730 
Q 3272 941 3272 1375 
Q 3272 1813 3026 2020 
Q 2781 2228 2272 2228 
L 1259 2228 
z
M 1259 4147 
L 1259 2741 
L 2194 2741 
Q 2656 2741 2882 2914 
Q 3109 3088 3109 3444 
Q 3109 3797 2882 3972 
Q 2656 4147 2194 4147 
L 1259 4147 
z
M 628 4666 
L 2241 4666 
Q 2963 4666 3353 4366 
Q 3744 4066 3744 3513 
Q 3744 3084 3544 2831 
Q 3344 2578 2956 2516 
Q 3422 2416 3680 2098 
Q 3938 1781 3938 1306 
Q 3938 681 3513 340 
Q 3088 0 2303 0 
L 628 0 
L 628 4666 
z
" transform="scale(0.015625)"/>
      </defs>
      <use xlink:href="#DejaVuSans-74"/>
      <use xlink:href="#DejaVuSans-79" x="39.208984"/>
      <use xlink:href="#DejaVuSans-70" x="98.388672"/>
      <use xlink:href="#DejaVuSans-65" x="161.865234"/>
      <use xlink:href="#DejaVuSans-42" x="223.388672"/>
     </g>
    </g>
   </g>
  </g>
 </g>
 <defs>
  <clipPath id="p8999d0971f">
   <rect x="56.99" y="10.8" width="508.21" height="376.36"/>
  </clipPath>
 </defs>
</svg>
